<svg width="186" height="39" viewBox="0 0 186 39" fill="none" xmlns="http://www.w3.org/2000/svg">
<path d="M25.655 38.0264H18.9423V15.4373C18.9423 12.1478 16.1985 9.47192 12.8296 9.47192C9.46068 9.47192 6.71688 12.1478 6.71688 15.4373V38.0264H0V15.4373C0 8.53906 5.75612 2.92554 12.8254 2.92554C19.8947 2.92554 25.6508 8.53906 25.6508 15.4373V38.0264H25.655Z" fill="white"/>
<path d="M56.6298 2.92554V25.5188C56.6298 27.9368 55.925 30.1912 54.7 32.1061C52.4344 35.6575 48.3942 38.0264 43.8002 38.0264C36.7309 38.0264 30.9748 32.4129 30.9748 25.5188V2.92554H37.6875V25.5188C37.6875 28.8042 40.4313 31.4801 43.8002 31.4801C47.1692 31.4801 49.9172 28.8042 49.9172 25.5188V2.92554H56.6298Z" fill="white"/>
<path d="M150.087 0V15.4372C150.087 10.6952 147.369 6.56275 143.375 4.44336V0H150.087Z" fill="white"/>
<path d="M186 15.8792V22.4255H182.904C183.193 21.3822 183.348 20.2816 183.348 19.1523C183.348 18.0231 183.193 16.9225 182.904 15.8792H186Z" fill="white"/>
<path d="M186 2.79443V9.34082H178.473C176.283 7.64694 173.514 6.63634 170.51 6.63634C167.507 6.63634 164.742 7.64694 162.552 9.34082H156.254V2.79443H186Z" fill="white"/>
<path d="M131.443 13.6042C131.25 14.1811 131.145 14.799 131.145 15.4372V20.3184C133.347 21.1612 134.912 23.2561 134.912 25.6987C134.912 28.1413 133.347 30.2362 131.145 31.079V37.8422C137.094 36.8439 141.625 31.7787 141.625 25.6987C141.625 19.6187 137.241 14.7253 131.443 13.6042Z" fill="white"/>
<path d="M150.087 15.4373V38.0264H143.374V15.4373C143.374 12.1478 140.631 9.47192 137.262 9.47192C134.543 9.47192 132.236 11.2067 131.443 13.6043C131.25 14.1812 131.145 14.799 131.145 15.4373V37.8423C130.444 37.9651 129.723 38.0264 128.984 38.0264H124.432V15.4373C124.432 14.7745 124.487 14.128 124.587 13.4939C125.548 7.51619 130.868 2.92554 137.262 2.92554C139.473 2.92554 141.558 3.4738 143.374 4.44348C147.369 6.56287 150.087 10.6953 150.087 15.4373Z" fill="white"/>
<path d="M182.904 15.8792C182.174 13.2606 180.596 10.9816 178.473 9.34095C176.283 7.64707 173.514 6.63647 170.51 6.63647C167.507 6.63647 164.742 7.64707 162.552 9.34095C159.581 11.6363 157.677 15.1795 157.677 19.1523C157.677 22.8101 159.292 26.1079 161.868 28.3991C163.626 29.9662 165.828 31.0586 168.266 31.48C168.996 31.6068 169.747 31.6723 170.51 31.6723C171.274 31.6723 172.025 31.6068 172.755 31.48C175.193 31.0586 177.399 29.9662 179.157 28.3991C180.932 26.8157 182.258 24.7536 182.904 22.4255C183.193 21.3822 183.348 20.2816 183.348 19.1523C183.348 18.0231 183.193 16.9225 182.904 15.8792ZM170.51 25.1259C167.137 25.1259 164.389 22.446 164.389 19.1523C164.389 15.8587 167.137 13.1829 170.51 13.1829C173.884 13.1829 176.636 15.8628 176.636 19.1523C176.636 22.4419 173.888 25.1259 170.51 25.1259Z" fill="white"/>
<path d="M183.348 37.6416C183.348 37.7684 183.348 37.8994 183.34 38.0262H176.619C176.632 37.8994 176.636 37.7725 176.636 37.6416C176.636 34.352 173.888 31.6721 170.51 31.6721C171.274 31.6721 172.025 31.6067 172.755 31.4798C175.193 31.0584 177.399 29.966 179.157 28.3989C180.156 29.2868 181.012 30.326 181.683 31.4798C182.744 33.3005 183.348 35.4036 183.348 37.6416Z" fill="white"/>
<path d="M164.389 37.6416C164.389 37.7725 164.394 37.8994 164.406 38.0262H157.685C157.677 37.8994 157.677 37.7725 157.677 37.6416C157.677 35.4036 158.281 33.3005 159.342 31.4798C160.013 30.326 160.869 29.2868 161.868 28.3989C163.626 29.966 165.828 31.0584 168.266 31.4798C168.996 31.6067 169.747 31.6721 170.51 31.6721C167.137 31.6721 164.389 34.352 164.389 37.6416Z" fill="white"/>
<path d="M81.3535 15.4373V38.0264H74.6408V15.4373C74.6408 12.1478 71.897 9.47192 68.5281 9.47192C67.7645 9.47192 67.0303 9.61103 66.3549 9.86062C65.4151 10.2084 64.5886 10.7771 63.9425 11.4972L59.9778 6.12099C60.7078 5.48272 61.5133 4.92218 62.3776 4.46394C64.2026 3.48198 66.3003 2.92554 68.5281 2.92554C75.6016 2.92554 81.3535 8.53906 81.3535 15.4373Z" fill="white"/>
<path d="M66.3548 9.8606L63.9425 11.4972C64.5886 10.7771 65.4151 10.2084 66.3548 9.8606Z" fill="white"/>
<path d="M105.221 36.0871C104.386 36.6067 103.484 37.0322 102.536 37.3513C101.231 37.7891 99.8344 38.0264 98.3786 38.0264C91.3051 38.0264 85.549 32.4129 85.549 25.5188V15.4373C85.549 8.53906 91.3051 2.92554 98.3786 2.92554C99.826 2.92554 101.219 3.16284 102.519 3.59654C103.472 3.91159 104.374 4.3371 105.209 4.85263L101.278 10.1879C100.413 9.72969 99.4274 9.47192 98.3786 9.47192C98.3156 9.47192 98.2485 9.47192 98.1856 9.47602C94.9006 9.57421 92.2616 12.2091 92.2616 15.4373V25.5188C92.2616 28.7469 94.9131 31.39 98.2065 31.476C98.2653 31.4801 98.3198 31.4801 98.3786 31.4801C99.4358 31.4801 100.426 31.2182 101.294 30.76L105.221 36.0871Z" fill="white"/>
</svg>
